<svg xmlns="http://www.w3.org/2000/svg" xmlns:xlink="http://www.w3.org/1999/xlink" viewBox="0,0,256,256" width="30px" height="30px" fill-rule="nonzero"><g fill="#a6a6a6" fill-rule="nonzero" stroke="none" stroke-width="1" stroke-linecap="butt" stroke-linejoin="miter" stroke-miterlimit="10" stroke-dasharray="" stroke-dashoffset="0" font-family="none" font-weight="none" font-size="none" text-anchor="none" style="mix-blend-mode: normal"><g transform="scale(5.12,5.12)"><path d="M25,2c-12.683,0 -23,10.317 -23,23c0,12.683 10.317,23 23,23c12.683,0 23,-10.317 23,-23c0,-12.683 -10.317,-23 -23,-23zM38,36.5c0,0.828 -0.672,1.5 -1.5,1.5c-0.828,0 -1.5,-0.672 -1.5,-1.5v-3.192c-2.429,2.927 -6.065,4.692 -10,4.692c-7.168,0 -13,-5.832 -13,-13c0,-7.168 5.832,-13 13,-13c4.279,0 8.285,2.112 10.716,5.65c0.469,0.683 0.296,1.617 -0.387,2.086c-0.683,0.471 -1.615,0.297 -2.086,-0.387c-1.871,-2.723 -4.953,-4.349 -8.243,-4.349c-5.514,0 -10,4.486 -10,10c0,5.514 4.486,10 10,10c3.191,0 6.11,-1.525 7.972,-4h-3.472c-0.828,0 -1.5,-0.672 -1.5,-1.5c0,-0.828 0.672,-1.5 1.5,-1.5h7.5c0.552,0 1,0.448 1,1z"></path></g></g></svg>